<svg xmlns="http://www.w3.org/2000/svg" viewBox="0 0 100 130" width="100" height="130">
  <defs>
    <linearGradient id="beer" x1="0" y1="0" x2="0" y2="1">
      <stop offset="0%" stop-color="#ffd24d"/>
      <stop offset="55%" stop-color="#f0a500"/>
      <stop offset="100%" stop-color="#e08e00"/>
    </linearGradient>
  </defs>
  <!-- glass body -->
  <path d="M22 28 H78 L70 120 a6 6 0 0 1 -6 6 H36 a6 6 0 0 1 -6 -6 Z"
        fill="#fbf7ef" stroke="#d9d2c5" stroke-width="2"/>
  <!-- beer -->
  <path d="M25 40 H75 L68 118 a4 4 0 0 1 -4 4 H36 a4 4 0 0 1 -4 -4 Z" fill="url(#beer)"/>
  <!-- foam -->
  <ellipse cx="50" cy="28" rx="29" ry="11" fill="#fffdf7"/>
  <ellipse cx="36" cy="24" rx="9" ry="7" fill="#ffffff"/>
  <ellipse cx="56" cy="22" rx="11" ry="8" fill="#ffffff"/>
  <ellipse cx="68" cy="27" rx="8" ry="6" fill="#fffdf7"/>
  <!-- horseshoe-ish mark (Rabieta) -->
  <path d="M44 64 a8 8 0 1 0 12 0" fill="none" stroke="#fff" stroke-width="2.5" stroke-linecap="round" opacity="0.85"/>
  <text x="50" y="92" font-family="Arial, sans-serif" font-size="9" font-weight="800"
        fill="#ffffff" text-anchor="middle" opacity="0.9" letter-spacing="1">RABiETA</text>
</svg>
